<?xml version="1.0" encoding="UTF-8"?>
<svg version="1.1" xmlns="http://www.w3.org/2000/svg" width="348" height="348">
<path d="M0 0 C114.84 0 229.68 0 348 0 C348 114.84 348 229.68 348 348 C233.16 348 118.32 348 0 348 C0 233.16 0 118.32 0 0 Z " fill="#000000" transform="translate(0,0)"/>
<path d="M0 0 C12.95864129 11.28590843 26.92427156 26.93053228 32.26171875 43.75 C29.07821208 55.33442706 9.03292458 65.05815462 -0.62890625 70.578125 C-12.5365949 77.18388294 -24.58232394 82.22665404 -37.73828125 85.75 C-38.97457275 86.08451172 -38.97457275 86.08451172 -40.23583984 86.42578125 C-52.60611316 89.59802046 -64.91247378 90.13113796 -77.61328125 90.1875 C-78.34500549 90.19385468 -79.07672974 90.20020935 -79.83062744 90.20675659 C-119.82506214 90.42292755 -157.09839823 73.01296557 -185.73828125 45.75 C-181.94248219 31.32596356 -172.63217031 19.56828162 -162.73828125 8.75 C-162.00996094 7.93917969 -161.28164062 7.12835938 -160.53125 6.29296875 C-117.95389864 -38.81216599 -46.27745191 -38.02540985 0 0 Z " fill="#FEFEFE" transform="translate(250.73828125,239.25)"/>
<path d="M0 0 C13.47173185 10.13547224 23.57208287 23.8859957 26.4921875 40.875 C28.11540471 59.54102124 24.18114451 75.72250726 13.23828125 91.02734375 C3.34723309 102.64565897 -11.01447815 111.66849843 -26.38476562 113.15283203 C-47.05212814 114.43570036 -62.15640328 110.53012052 -78.2578125 97.0625 C-89.55594471 86.54979945 -97.0936323 71.5612434 -97.84375 56.078125 C-98.19429817 36.8937541 -92.96209317 20.55845165 -79.36328125 6.4453125 C-57.23452368 -13.4735965 -25.03075862 -17.23185757 0 0 Z " fill="#FEFEFE" transform="translate(209.5078125,79.125)"/>
<path d="M0 0 C54.45 0 108.9 0 165 0 C165 0.33 165 0.66 165 1 C163.72769531 1.08636719 162.45539063 1.17273438 161.14453125 1.26171875 C122.63011906 4.20076249 88.30465417 18.82696132 59 44 C58.071875 44.79277344 57.14375 45.58554687 56.1875 46.40234375 C49.70642308 52.10029054 44.28114597 58.19155398 39 65 C37.79730469 66.46179688 37.79730469 66.46179688 36.5703125 67.953125 C20.79398642 87.51380345 11.05092897 110.78385411 5 135 C4.8129248 135.73645752 4.62584961 136.47291504 4.43310547 137.23168945 C3.01809622 143.13499264 2.38792705 149.02089207 1.875 155.0625 C1.74544922 156.50399414 1.74544922 156.50399414 1.61328125 157.97460938 C1.40360497 160.31599448 1.1992756 162.65771078 1 165 C0.67 165 0.34 165 0 165 C0 110.55 0 56.1 0 0 Z " fill="#F4F4F4" transform="translate(0,0)"/>
<path d="M0 0 C0.33 0 0.66 0 1 0 C1 52.8 1 105.6 1 160 C-51.8 160 -104.6 160 -159 160 C-159 159.67 -159 159.34 -159 159 C-158.40687012 158.93006836 -157.81374023 158.86013672 -157.20263672 158.78808594 C-145.42738389 157.37058889 -134.30473768 155.65491519 -123 152 C-122.03320312 151.74992188 -121.06640625 151.49984375 -120.0703125 151.2421875 C-88.35369877 142.75696357 -57.95491498 120.81777496 -38 95 C-37.19949219 94.02675781 -36.39898437 93.05351562 -35.57421875 92.05078125 C-14.34569853 65.98459591 -3.15134082 33.13054358 0 0 Z " fill="#F1F1F1" transform="translate(347,188)"/>
<path d="M0 0 C0.33 0 0.66 0 1 0 C1.05945801 0.55647217 1.11891602 1.11294434 1.18017578 1.6862793 C5.28752376 38.67888572 19.14862925 74.50165655 44.99609375 101.875 C46.88217659 103.87505666 48.62474661 105.94398998 50.375 108.0625 C54.71082803 113.02483529 59.82882799 116.94801254 65 121 C65.97839844 121.80566406 66.95679687 122.61132812 67.96484375 123.44140625 C94.19858345 144.58057355 126.82739698 155.6231482 160 159 C160 159.33 160 159.66 160 160 C107.2 160 54.4 160 0 160 C0 107.2 0 54.4 0 0 Z " fill="#FDFDFD" transform="translate(0,188)"/>
<path d="M0 0 C52.8 0 105.6 0 160 0 C160 52.8 160 105.6 160 160 C159.67 160 159.34 160 159 160 C158.84144531 158.71609375 158.68289063 157.4321875 158.51953125 156.109375 C155.83986592 135.36868621 150.99810116 116.92636935 142 98 C141.67128906 97.30535645 141.34257812 96.61071289 141.00390625 95.89501953 C134.35958005 82.10666418 125.51036396 69.25169582 115.00390625 58.125 C113.11782341 56.12494334 111.37525339 54.05601002 109.625 51.9375 C105.28917197 46.97516471 100.17117201 43.05198746 95 39 C94.02160156 38.19433594 93.04320312 37.38867188 92.03515625 36.55859375 C65.7144401 15.34934076 33.28752174 4.44666438 0 1 C0 0.67 0 0.34 0 0 Z " fill="#FDFDFD" transform="translate(188,0)"/>
<path d="M0 0 C0.33 0 0.66 0 1 0 C1 52.8 1 105.6 1 160 C-51.8 160 -104.6 160 -159 160 C-159 159.67 -159 159.34 -159 159 C-158.40687012 158.93006836 -157.81374023 158.86013672 -157.20263672 158.78808594 C-145.44039271 157.37215488 -134.28187096 155.70078509 -123 152 C-120.62589632 151.26792026 -118.2509112 150.53869213 -115.875 149.8125 C-114.84117187 149.48894531 -113.80734375 149.16539062 -112.7421875 148.83203125 C-110.51362627 148.15584387 -108.25935223 147.56483806 -106 147 C-106.33 150.3 -106.66 153.6 -107 157 C-102.05 157 -97.1 157 -92 157 C-92 152.05 -92 147.1 -92 142 C-87.05 142 -82.1 142 -77 142 C-77 146.95 -77 151.9 -77 157 C-72.05 157 -67.1 157 -62 157 C-62 152.05 -62 147.1 -62 142 C-57.05 142 -52.1 142 -47 142 C-47 146.95 -47 151.9 -47 157 C-42.05 157 -37.1 157 -32 157 C-32 152.05 -32 147.1 -32 142 C-27.05 142 -22.1 142 -17 142 C-17 137.05 -17 132.1 -17 127 C-12.05 127 -7.1 127 -2 127 C-2 122.05 -2 117.1 -2 112 C-6.95 112 -11.9 112 -17 112 C-17 97.15 -17 82.3 -17 67 C-12.05 67 -7.1 67 -2 67 C-2 62.05 -2 57.1 -2 52 C-4.64 52 -7.28 52 -10 52 C-10.40042463 47.49522295 -9.89912895 44.34445102 -8.25 40.125 C-3.27165347 27.20248347 -1.3047833 13.7173929 0 0 Z " fill="#EDEDED" transform="translate(347,188)"/>
<path d="M0 0 C4.95 0 9.9 0 15 0 C15 4.95 15 9.9 15 15 C19.95 15 24.9 15 30 15 C30 19.95 30 24.9 30 30 C34.95 30 39.9 30 45 30 C45 34.95 45 39.9 45 45 C49.95 45 54.9 45 60 45 C60 49.95 60 54.9 60 60 C51.73740524 61.63530521 51.73740524 61.63530521 47 61 C44.33573506 58.73373597 42.89144913 56.3616515 41.078125 53.375 C38.7404507 49.57847633 36.09826337 46.30144711 33.1875 42.9375 C32.41345825 42.04236694 32.41345825 42.04236694 31.6237793 41.12915039 C25.66713106 34.34929355 19.36373311 28.12256651 11.75390625 23.2109375 C0.72806627 15.94819108 0.72806627 15.94819108 -0.70947266 12.1015625 C-1.38098705 7.82079044 -0.69186694 4.32416836 0 0 Z " fill="#EDEDED" transform="translate(270,15)"/>
<path d="M0 0 C5.2952703 -0.67488739 8.87679865 -1.10931243 14 0 C17.68941873 3.24141789 20.08758469 6.99461702 22.72412109 11.10498047 C24.89431807 14.32830021 27.39928664 17.25051698 29.9375 20.1875 C30.44442383 20.77515137 30.95134766 21.36280273 31.47363281 21.96826172 C40.16159425 31.88429173 50.18776309 39.58138489 61 47 C60.505 47.99 60.505 47.99 60 49 C59.92966231 50.87379605 59.9156978 52.75001102 59.9375 54.625 C59.958125 56.39875 59.97875 58.1725 60 60 C55.05 60 50.1 60 45 60 C45 55.05 45 50.1 45 45 C40.05 45 35.1 45 30 45 C30 40.05 30 35.1 30 30 C25.05 30 20.1 30 15 30 C15 25.05 15 20.1 15 15 C10.05 15 5.1 15 0 15 C0 10.05 0 5.1 0 0 Z " fill="#EDEDED" transform="translate(15,270)"/>
<path d="M0 0 C3.96 0 7.92 0 12 0 C13.02048017 4.08192068 13.01380893 4.79529109 11.671875 8.4921875 C11.36789795 9.35457031 11.0639209 10.21695313 10.75073242 11.10546875 C10.25536987 12.47638672 10.25536987 12.47638672 9.75 13.875 C4.46928492 29.17463276 2.2817959 43.92347191 1 60 C0.67 60 0.34 60 0 60 C0 40.2 0 20.4 0 0 Z " fill="#EFEFEF" transform="translate(0,105)"/>
<path d="M0 0 C19.8 0 39.6 0 60 0 C60 0.33 60 0.66 60 1 C58.72769531 1.08636719 57.45539063 1.17273438 56.14453125 1.26171875 C38.700778 2.5956922 22.25238274 6.12770879 5.8359375 12.1796875 C3 13 3 13 0 12 C0 8.04 0 4.08 0 0 Z " fill="#F2F2F2" transform="translate(105,0)"/>
<path d="M0 0 C0.66 0.33 1.32 0.66 2 1 C1.67 1.33 1.34 1.66 1 2 C0.76807135 3.51469448 0.58784762 5.03754562 0.4375 6.5625 C0.293125 8.026875 0.14875 9.49125 0 11 C-4.95 11 -9.9 11 -15 11 C-15 15.95 -15 20.9 -15 26 C-19.95 26 -24.9 26 -30 26 C-30.125 17.25 -30.125 17.25 -29 15 C-27.30102539 14.04199219 -27.30102539 14.04199219 -25.09765625 13.046875 C-24.29384521 12.67739746 -23.49003418 12.30791992 -22.66186523 11.92724609 C-21.80407471 11.53875488 -20.94628418 11.15026367 -20.0625 10.75 C-13.68398023 7.81394099 -7.57807749 4.79352072 -1.71484375 0.8984375 C-1.14894531 0.60195313 -0.58304687 0.30546875 0 0 Z " fill="#FCFCFC" transform="translate(270,319)"/>
<path d="M0 0 C0.33 0 0.66 0 1 0 C1.05945801 0.55647217 1.11891602 1.11294434 1.18017578 1.6862793 C2.84832012 16.71033069 6.07224688 30.69650844 10.66357422 45.07861328 C12.10969174 49.78061652 12.10969174 49.78061652 11 52 C7.37 52 3.74 52 0 52 C0 34.84 0 17.68 0 0 Z " fill="#ECECEC" transform="translate(0,188)"/>
<path d="M0 0 C17.16 0 34.32 0 52 0 C52 3.63 52 7.26 52 11 C47.99718382 12.33427206 46.37383303 11.26049306 42.4375 9.8125 C28.64307816 4.96709289 14.50882064 2.50227571 0 1 C0 0.67 0 0.34 0 0 Z " fill="#ECECEC" transform="translate(188,0)"/>
<path d="M0 0 C1.155 0.391875 2.31 0.78375 3.5 1.1875 C20.59356445 6.85847814 37.04198054 11.17193814 55 13 C55 13.33 55 13.66 55 14 C41.8 14 28.6 14 15 14 C15 13.01 15 12.02 15 11 C10.05 11 5.1 11 0 11 C0 7.37 0 3.74 0 0 Z " fill="#EEEEEE" transform="translate(105,334)"/>
<path d="M0 0 C3.63 0 7.26 0 11 0 C11 4.95 11 9.9 11 15 C11.99 15 12.98 15 14 15 C14 28.2 14 41.4 14 55 C13.67 55 13.34 55 13 55 C12.84144531 53.71609375 12.68289063 52.4321875 12.51953125 51.109375 C10.43428629 35.00323777 7.75413878 18.96745224 0.91796875 4.1171875 C0 2 0 2 0 0 Z " fill="#EFEFEF" transform="translate(334,105)"/>
<path d="M0 0 C4.95 0 9.9 0 15 0 C15 3.96 15 7.92 15 12 C15.99 12.33 16.98 12.66 18 13 C16.71086513 13.67154933 15.41859796 14.33708859 14.125 15 C13.40570313 15.37125 12.68640625 15.7425 11.9453125 16.125 C10 17 10 17 8 17 C8 16.34 8 15.68 8 15 C5.36 15 2.72 15 0 15 C0 10.05 0 5.1 0 0 Z " fill="#FDFDFD" transform="translate(90,0)"/>
<path d="M0 0 C4.95 0 9.9 0 15 0 C15.33 2.31 15.66 4.62 16 7 C16.33 7.99 16.66 8.98 17 10 C16.07796291 12.36522558 15.08301035 14.70401807 14 17 C13.34 16.67 12.68 16.34 12 16 C9.9625237 15.77141886 7.91959697 15.58975722 5.875 15.4375 C3.93625 15.293125 1.9975 15.14875 0 15 C0 10.05 0 5.1 0 0 Z " fill="#FDFDFD" transform="translate(0,90)"/>
<path d="M0 0 C4.95 0 9.9 0 15 0 C15 4.95 15 9.9 15 15 C10.05 15 5.1 15 0 15 C0 10.05 0 5.1 0 0 Z " fill="#FFFFFF" transform="translate(330,330)"/>
<path d="M0 0 C4.95 0 9.9 0 15 0 C15 4.95 15 9.9 15 15 C10.05 15 5.1 15 0 15 C0 10.05 0 5.1 0 0 Z " fill="#FFFFFF" transform="translate(300,330)"/>
<path d="M0 0 C4.95 0 9.9 0 15 0 C15 4.95 15 9.9 15 15 C10.05 15 5.1 15 0 15 C0 10.05 0 5.1 0 0 Z " fill="#FFFFFF" transform="translate(270,330)"/>
<path d="M0 0 C4.95 0 9.9 0 15 0 C15 4.95 15 9.9 15 15 C10.05 15 5.1 15 0 15 C0 10.05 0 5.1 0 0 Z " fill="#EEEEEE" transform="translate(75,330)"/>
<path d="M0 0 C4.95 0 9.9 0 15 0 C15 4.95 15 9.9 15 15 C10.05 15 5.1 15 0 15 C0 10.05 0 5.1 0 0 Z " fill="#EEEEEE" transform="translate(45,330)"/>
<path d="M0 0 C4.95 0 9.9 0 15 0 C15 4.95 15 9.9 15 15 C10.05 15 5.1 15 0 15 C0 10.05 0 5.1 0 0 Z " fill="#FFFFFF" transform="translate(30,330)"/>
<path d="M0 0 C4.95 0 9.9 0 15 0 C15 4.95 15 9.9 15 15 C10.05 15 5.1 15 0 15 C0 10.05 0 5.1 0 0 Z " fill="#EEEEEE" transform="translate(15,330)"/>
<path d="M0 0 C4.95 0 9.9 0 15 0 C15 4.95 15 9.9 15 15 C10.05 15 5.1 15 0 15 C0 10.05 0 5.1 0 0 Z " fill="#FFFFFF" transform="translate(315,315)"/>
<path d="M0 0 C4.95 0 9.9 0 15 0 C15 4.95 15 9.9 15 15 C10.05 15 5.1 15 0 15 C0 10.05 0 5.1 0 0 Z " fill="#EEEEEE" transform="translate(300,315)"/>
<path d="M0 0 C4.95 0 9.9 0 15 0 C15 4.95 15 9.9 15 15 C10.05 15 5.1 15 0 15 C0 10.05 0 5.1 0 0 Z " fill="#FFFFFF" transform="translate(285,315)"/>
<path d="M0 0 C4.95 0 9.9 0 15 0 C15 4.95 15 9.9 15 15 C10.05 15 5.1 15 0 15 C0 10.05 0 5.1 0 0 Z " fill="#FFFFFF" transform="translate(45,315)"/>
<path d="M0 0 C4.95 0 9.9 0 15 0 C15 4.95 15 9.9 15 15 C10.05 15 5.1 15 0 15 C0 10.05 0 5.1 0 0 Z " fill="#EEEEEE" transform="translate(30,315)"/>
<path d="M0 0 C4.95 0 9.9 0 15 0 C15 4.95 15 9.9 15 15 C10.05 15 5.1 15 0 15 C0 10.05 0 5.1 0 0 Z " fill="#FFFFFF" transform="translate(15,315)"/>
<path d="M0 0 C4.95 0 9.9 0 15 0 C15 4.95 15 9.9 15 15 C10.05 15 5.1 15 0 15 C0 10.05 0 5.1 0 0 Z " fill="#EEEEEE" transform="translate(0,315)"/>
<path d="M0 0 C4.95 0 9.9 0 15 0 C15 4.95 15 9.9 15 15 C10.05 15 5.1 15 0 15 C0 10.05 0 5.1 0 0 Z " fill="#FFFFFF" transform="translate(330,300)"/>
<path d="M0 0 C4.95 0 9.9 0 15 0 C15 4.95 15 9.9 15 15 C10.05 15 5.1 15 0 15 C0 10.05 0 5.1 0 0 Z " fill="#EEEEEE" transform="translate(315,300)"/>
<path d="M0 0 C4.95 0 9.9 0 15 0 C15 4.95 15 9.9 15 15 C10.05 15 5.1 15 0 15 C0 10.05 0 5.1 0 0 Z " fill="#FFFFFF" transform="translate(300,300)"/>
<path d="M0 0 C4.95 0 9.9 0 15 0 C15 4.95 15 9.9 15 15 C10.05 15 5.1 15 0 15 C0 10.05 0 5.1 0 0 Z " fill="#FFFFFF" transform="translate(30,300)"/>
<path d="M0 0 C4.95 0 9.9 0 15 0 C15 4.95 15 9.9 15 15 C10.05 15 5.1 15 0 15 C0 10.05 0 5.1 0 0 Z " fill="#EEEEEE" transform="translate(15,300)"/>
<path d="M0 0 C4.95 0 9.9 0 15 0 C15 4.95 15 9.9 15 15 C10.05 15 5.1 15 0 15 C0 10.05 0 5.1 0 0 Z " fill="#FFFFFF" transform="translate(0,300)"/>
<path d="M0 0 C4.95 0 9.9 0 15 0 C15 4.95 15 9.9 15 15 C10.05 15 5.1 15 0 15 C0 10.05 0 5.1 0 0 Z " fill="#EEEEEE" transform="translate(330,285)"/>
<path d="M0 0 C4.95 0 9.9 0 15 0 C15 4.95 15 9.9 15 15 C10.05 15 5.1 15 0 15 C0 10.05 0 5.1 0 0 Z " fill="#FFFFFF" transform="translate(315,285)"/>
<path d="M0 0 C4.95 0 9.9 0 15 0 C15 4.95 15 9.9 15 15 C10.05 15 5.1 15 0 15 C0 10.05 0 5.1 0 0 Z " fill="#FFFFFF" transform="translate(15,285)"/>
<path d="M0 0 C4.95 0 9.9 0 15 0 C15 4.95 15 9.9 15 15 C10.05 15 5.1 15 0 15 C0 10.05 0 5.1 0 0 Z " fill="#EEEEEE" transform="translate(0,285)"/>
<path d="M0 0 C4.95 0 9.9 0 15 0 C15 4.95 15 9.9 15 15 C10.05 15 5.1 15 0 15 C0 10.05 0 5.1 0 0 Z " fill="#FFFFFF" transform="translate(330,270)"/>
<path d="M0 0 C4.95 0 9.9 0 15 0 C15 4.95 15 9.9 15 15 C10.05 15 5.1 15 0 15 C0 10.05 0 5.1 0 0 Z " fill="#FFFFFF" transform="translate(0,270)"/>
<path d="M0 0 C4.95 0 9.9 0 15 0 C15 4.95 15 9.9 15 15 C10.05 15 5.1 15 0 15 C0 10.05 0 5.1 0 0 Z " fill="#EEEEEE" transform="translate(0,255)"/>
<path d="M0 0 C4.95 0 9.9 0 15 0 C15 4.95 15 9.9 15 15 C10.05 15 5.1 15 0 15 C0 10.05 0 5.1 0 0 Z " fill="#EEEEEE" transform="translate(330,75)"/>
<path d="M0 0 C4.95 0 9.9 0 15 0 C15 4.95 15 9.9 15 15 C10.05 15 5.1 15 0 15 C0 10.05 0 5.1 0 0 Z " fill="#EEEEEE" transform="translate(0,75)"/>
<path d="M0 0 C4.95 0 9.9 0 15 0 C15 4.95 15 9.9 15 15 C10.05 15 5.1 15 0 15 C0 10.05 0 5.1 0 0 Z " fill="#FFFFFF" transform="translate(0,60)"/>
<path d="M0 0 C4.95 0 9.9 0 15 0 C15 4.95 15 9.9 15 15 C10.05 15 5.1 15 0 15 C0 10.05 0 5.1 0 0 Z " fill="#EEEEEE" transform="translate(330,45)"/>
<path d="M0 0 C4.95 0 9.9 0 15 0 C15 4.95 15 9.9 15 15 C10.05 15 5.1 15 0 15 C0 10.05 0 5.1 0 0 Z " fill="#FFFFFF" transform="translate(315,45)"/>
<path d="M0 0 C4.95 0 9.9 0 15 0 C15 4.95 15 9.9 15 15 C10.05 15 5.1 15 0 15 C0 10.05 0 5.1 0 0 Z " fill="#FFFFFF" transform="translate(15,45)"/>
<path d="M0 0 C4.95 0 9.9 0 15 0 C15 4.95 15 9.9 15 15 C10.05 15 5.1 15 0 15 C0 10.05 0 5.1 0 0 Z " fill="#EEEEEE" transform="translate(0,45)"/>
<path d="M0 0 C4.95 0 9.9 0 15 0 C15 4.95 15 9.9 15 15 C10.05 15 5.1 15 0 15 C0 10.05 0 5.1 0 0 Z " fill="#FFFFFF" transform="translate(330,30)"/>
<path d="M0 0 C4.95 0 9.9 0 15 0 C15 4.95 15 9.9 15 15 C10.05 15 5.1 15 0 15 C0 10.05 0 5.1 0 0 Z " fill="#EEEEEE" transform="translate(315,30)"/>
<path d="M0 0 C4.95 0 9.9 0 15 0 C15 4.95 15 9.9 15 15 C10.05 15 5.1 15 0 15 C0 10.05 0 5.1 0 0 Z " fill="#FFFFFF" transform="translate(300,30)"/>
<path d="M0 0 C4.95 0 9.9 0 15 0 C15 4.95 15 9.9 15 15 C10.05 15 5.1 15 0 15 C0 10.05 0 5.1 0 0 Z " fill="#FFFFFF" transform="translate(30,30)"/>
<path d="M0 0 C4.95 0 9.9 0 15 0 C15 4.95 15 9.9 15 15 C10.05 15 5.1 15 0 15 C0 10.05 0 5.1 0 0 Z " fill="#EEEEEE" transform="translate(15,30)"/>
<path d="M0 0 C4.95 0 9.9 0 15 0 C15 4.95 15 9.9 15 15 C10.05 15 5.1 15 0 15 C0 10.05 0 5.1 0 0 Z " fill="#FFFFFF" transform="translate(0,30)"/>
<path d="M0 0 C4.95 0 9.9 0 15 0 C15 4.95 15 9.9 15 15 C10.05 15 5.1 15 0 15 C0 10.05 0 5.1 0 0 Z " fill="#EEEEEE" transform="translate(330,15)"/>
<path d="M0 0 C4.95 0 9.9 0 15 0 C15 4.95 15 9.9 15 15 C10.05 15 5.1 15 0 15 C0 10.05 0 5.1 0 0 Z " fill="#FFFFFF" transform="translate(315,15)"/>
<path d="M0 0 C4.95 0 9.9 0 15 0 C15 4.95 15 9.9 15 15 C10.05 15 5.1 15 0 15 C0 10.05 0 5.1 0 0 Z " fill="#EEEEEE" transform="translate(300,15)"/>
<path d="M0 0 C4.95 0 9.9 0 15 0 C15 4.95 15 9.9 15 15 C10.05 15 5.1 15 0 15 C0 10.05 0 5.1 0 0 Z " fill="#FFFFFF" transform="translate(285,15)"/>
<path d="M0 0 C4.95 0 9.9 0 15 0 C15 4.95 15 9.9 15 15 C10.05 15 5.1 15 0 15 C0 10.05 0 5.1 0 0 Z " fill="#FFFFFF" transform="translate(45,15)"/>
<path d="M0 0 C4.95 0 9.9 0 15 0 C15 4.95 15 9.9 15 15 C10.05 15 5.1 15 0 15 C0 10.05 0 5.1 0 0 Z " fill="#EEEEEE" transform="translate(30,15)"/>
<path d="M0 0 C4.95 0 9.9 0 15 0 C15 4.95 15 9.9 15 15 C10.05 15 5.1 15 0 15 C0 10.05 0 5.1 0 0 Z " fill="#FFFFFF" transform="translate(15,15)"/>
<path d="M0 0 C4.95 0 9.9 0 15 0 C15 4.95 15 9.9 15 15 C10.05 15 5.1 15 0 15 C0 10.05 0 5.1 0 0 Z " fill="#EEEEEE" transform="translate(0,15)"/>
<path d="M0 0 C4.95 0 9.9 0 15 0 C15 4.95 15 9.9 15 15 C10.05 15 5.1 15 0 15 C0 10.05 0 5.1 0 0 Z " fill="#EEEEEE" transform="translate(315,0)"/>
<path d="M0 0 C4.95 0 9.9 0 15 0 C15 4.95 15 9.9 15 15 C10.05 15 5.1 15 0 15 C0 10.05 0 5.1 0 0 Z " fill="#FFFFFF" transform="translate(300,0)"/>
<path d="M0 0 C4.95 0 9.9 0 15 0 C15 4.95 15 9.9 15 15 C10.05 15 5.1 15 0 15 C0 10.05 0 5.1 0 0 Z " fill="#EEEEEE" transform="translate(285,0)"/>
<path d="M0 0 C4.95 0 9.9 0 15 0 C15 4.95 15 9.9 15 15 C10.05 15 5.1 15 0 15 C0 10.05 0 5.1 0 0 Z " fill="#FFFFFF" transform="translate(270,0)"/>
<path d="M0 0 C4.95 0 9.9 0 15 0 C15 4.95 15 9.9 15 15 C10.05 15 5.1 15 0 15 C0 10.05 0 5.1 0 0 Z " fill="#EEEEEE" transform="translate(255,0)"/>
<path d="M0 0 C4.95 0 9.9 0 15 0 C15 4.95 15 9.9 15 15 C10.05 15 5.1 15 0 15 C0 10.05 0 5.1 0 0 Z " fill="#EEEEEE" transform="translate(75,0)"/>
<path d="M0 0 C4.95 0 9.9 0 15 0 C15 4.95 15 9.9 15 15 C10.05 15 5.1 15 0 15 C0 10.05 0 5.1 0 0 Z " fill="#FFFFFF" transform="translate(60,0)"/>
<path d="M0 0 C4.95 0 9.9 0 15 0 C15 4.95 15 9.9 15 15 C10.05 15 5.1 15 0 15 C0 10.05 0 5.1 0 0 Z " fill="#EEEEEE" transform="translate(45,0)"/>
<path d="M0 0 C4.95 0 9.9 0 15 0 C15 4.95 15 9.9 15 15 C10.05 15 5.1 15 0 15 C0 10.05 0 5.1 0 0 Z " fill="#FFFFFF" transform="translate(30,0)"/>
<path d="M0 0 C4.95 0 9.9 0 15 0 C15 4.95 15 9.9 15 15 C10.05 15 5.1 15 0 15 C0 10.05 0 5.1 0 0 Z " fill="#FFFFFF" transform="translate(0,0)"/>
<path d="M0 0 C4.95 0 9.9 0 15 0 C15.09765625 10.83984375 15.09765625 10.83984375 15 14 C14 15 14 15 10.83984375 15.09765625 C7.2265625 15.06510417 3.61328125 15.03255208 0 15 C0 10.05 0 5.1 0 0 Z " fill="#EEEEEE" transform="translate(15,60)"/>
<path d="M0 0 C4.95 0 9.9 0 15 0 C15.09765625 10.83984375 15.09765625 10.83984375 15 14 C14 15 14 15 10.83984375 15.09765625 C7.2265625 15.06510417 3.61328125 15.03255208 0 15 C0 10.05 0 5.1 0 0 Z " fill="#EEEEEE" transform="translate(60,15)"/>
<path d="M0 0 C0.33 0 0.66 0 1 0 C1.07516846 0.60360352 1.15033691 1.20720703 1.2277832 1.82910156 C3.04446072 16.95851804 3.04446072 16.95851804 6.546875 31.7578125 C7.0417909 34.2067929 6.79890469 35.65726599 6 38 C4.02 37.67 2.04 37.34 0 37 C0 24.79 0 12.58 0 0 Z " fill="#FBFBFB" transform="translate(0,188)"/>
<path d="M0 0 C12.21 0 24.42 0 37 0 C37.495 3.465 37.495 3.465 38 7 C32.83041202 6.56189932 27.97652585 5.80654878 22.9375 4.5625 C15.35983378 2.73093139 7.73676915 1.84419176 0 1 C0 0.67 0 0.34 0 0 Z " fill="#FBFBFB" transform="translate(188,0)"/>
<path d="M0 0 C2.64 0 5.28 0 8 0 C8.04125 1.010625 8.0825 2.02125 8.125 3.0625 C8.83077207 7.8095423 11.18705724 11.13013051 15 14 C17.81430287 14.85389082 20.01820994 14.94858983 23 15 C23 18.3 23 21.6 23 25 C19.3935491 23.7978497 18.69961269 22.61911157 16.4375 19.625 C13.29972256 15.59071473 10.05824746 11.71913857 6.625 7.9375 C5.79226563 7.01839844 4.95953125 6.09929688 4.1015625 5.15234375 C2.18807427 2.95756656 2.18807427 2.95756656 0 2 C0 1.34 0 0.68 0 0 Z " fill="#F8F8F8" transform="translate(292,45)"/>
<path d="M0 0 C0.66 0 1.32 0 2 0 C3.33984375 1.43359375 3.33984375 1.43359375 4.9375 3.4375 C8.66466411 7.85371966 12.88924594 11.29620584 17.44921875 14.82421875 C20.02539763 17.02166383 22.01121811 19.2660071 24 22 C24 22.33 24 22.66 24 23 C21.03 23 18.06 23 15 23 C14.979375 21.80375 14.95875 20.6075 14.9375 19.375 C14.48330086 15.77339271 13.54816613 14.02037758 10.875 11.5625 C7.28587184 8.82049526 4.46571403 8.18227404 0 8 C0 5.36 0 2.72 0 0 Z " fill="#F5F5F5" transform="translate(45,292)"/>
<path d="M0 0 C1.58025005 0.21192095 3.16398461 0.39923371 4.75 0.5625 C5.54921875 0.64628906 6.3484375 0.73007812 7.171875 0.81640625 C8.07679688 0.90728516 8.07679688 0.90728516 9 1 C9 1.99 9 2.98 9 4 C-3.21 4 -15.42 4 -28 4 C-28 3.67 -28 3.34 -28 3 C-27.01604248 2.87153687 -27.01604248 2.87153687 -26.01220703 2.74047852 C-23.049303 2.35153499 -20.08715747 1.95708727 -17.125 1.5625 C-16.09246094 1.42779297 -15.05992187 1.29308594 -13.99609375 1.15429688 C-13.00996094 1.02216797 -12.02382812 0.89003906 -11.0078125 0.75390625 C-10.09660645 0.63345947 -9.18540039 0.5130127 -8.24658203 0.38891602 C-2.31697574 -0.63758505 -2.31697574 -0.63758505 0 0 Z " fill="#EBEBEB" transform="translate(216,344)"/>
<path d="M0 0 C0.33 0 0.66 0 1 0 C1 12.21 1 24.42 1 37 C0.01 37 -0.98 37 -2 37 C-2.09087891 36.09507812 -2.09087891 36.09507812 -2.18359375 35.171875 C-2.30927734 33.97304687 -2.30927734 33.97304687 -2.4375 32.75 C-2.51871094 31.96109375 -2.59992188 31.1721875 -2.68359375 30.359375 C-2.9109648 28.04795323 -2.9109648 28.04795323 -3.66015625 26.140625 C-4.18212692 22.85280977 -2.94261438 20.16913455 -2 17 C-1.50932849 14.0324456 -1.18767962 11.05345997 -0.875 8.0625 C-0.78863281 7.28326172 -0.70226562 6.50402344 -0.61328125 5.70117188 C-0.40348677 3.8013663 -0.20098006 1.90075826 0 0 Z " fill="#EBEBEB" transform="translate(347,188)"/>
<path d="M0 0 C4.3426555 2.17132775 6.41800601 4.67111264 9.25 8.4375 C9.93835938 9.31631836 9.93835938 9.31631836 10.640625 10.21289062 C14 14.61707124 14 14.61707124 14 18 C13.34 17.195625 12.68 16.39125 12 15.5625 C8.12020772 12.24851076 5.99985175 12.25422975 1 12 C0.67 8.04 0.34 4.08 0 0 Z " fill="#F8F8F8" transform="translate(29,273)"/>
<path d="M0 0 C3.96 0 7.92 0 12 0 C12.12375 1.85625 12.12375 1.85625 12.25 3.75 C12.63475459 6.98882964 12.90024003 7.87907883 15.0625 10.5 C15.701875 10.995 16.34125 11.49 17 12 C16.67 12.66 16.34 13.32 16 14 C14.08124655 12.41914024 12.16497722 10.835423 10.25 9.25 C9.71117187 8.8065625 9.17234375 8.363125 8.6171875 7.90625 C5.57394081 5.38258201 2.80553949 2.80553949 0 0 Z " fill="#F8F8F8" transform="translate(273,30)"/>
<path d="M0 0 C3.63 0 7.26 0 11 0 C11 2 11 2 9.35546875 3.69140625 C8.64003906 4.30886719 7.92460938 4.92632812 7.1875 5.5625 C6.12595703 6.49255859 6.12595703 6.49255859 5.04296875 7.44140625 C3 9 3 9 0 10 C0 6.7 0 3.4 0 0 Z " fill="#FDFDFD" transform="translate(45,45)"/>
<path d="M0 0 C6.40593286 1.10690752 12.71363856 2.33945169 19 4 C19 4.66 19 5.32 19 6 C14.05 6 9.1 6 4 6 C4 4.68 4 3.36 4 2 C2.68 1.34 1.36 0.68 0 0 Z " fill="#F7F7F7" transform="translate(116,339)"/>
<path d="M0 0 C0.66 1.32 1.32 2.64 2 4 C3.32 4 4.64 4 6 4 C6 8.62 6 13.24 6 18 C5.34 18.33 4.68 18.66 4 19 C3.32900016 16.39688008 2.66304662 13.79264602 2 11.1875 C1.80921875 10.44951172 1.6184375 9.71152344 1.421875 8.95117188 C0.64737086 5.89464659 0 3.16626522 0 0 Z " fill="#F7F7F7" transform="translate(339,116)"/>
<path d="M0 0 C5.01290472 1.43225849 6.98038618 3.94509001 10 8 C10 8.33 10 8.66 10 9 C7.03 9 4.06 9 1 9 C0.67 6.03 0.34 3.06 0 0 Z " fill="#FBFBFB" transform="translate(59,306)"/>
<path d="M0 0 C9.9 0 19.8 0 30 0 C30 0.33 30 0.66 30 1 C26.3129484 1.3384185 22.62529741 1.66981608 18.9375 2 C17.89916016 2.09539062 16.86082031 2.19078125 15.79101562 2.2890625 C10.50422394 2.75899954 5.30765619 3.12045745 0 3 C0 2.01 0 1.02 0 0 Z " fill="#D9D9D9" transform="translate(135,0)"/>
<path d="M0 0 C4.95 0 9.9 0 15 0 C15 0.99 15 1.98 15 3 C10.05 3 5.1 3 0 3 C0 2.01 0 1.02 0 0 Z " fill="#FFFFFF" transform="translate(315,345)"/>
<path d="M0 0 C4.95 0 9.9 0 15 0 C15 0.99 15 1.98 15 3 C10.05 3 5.1 3 0 3 C0 2.01 0 1.02 0 0 Z " fill="#EEEEEE" transform="translate(300,345)"/>
<path d="M0 0 C4.95 0 9.9 0 15 0 C15 0.99 15 1.98 15 3 C10.05 3 5.1 3 0 3 C0 2.01 0 1.02 0 0 Z " fill="#FFFFFF" transform="translate(285,345)"/>
<path d="M0 0 C4.95 0 9.9 0 15 0 C15 0.99 15 1.98 15 3 C10.05 3 5.1 3 0 3 C0 2.01 0 1.02 0 0 Z " fill="#EEEEEE" transform="translate(270,345)"/>
<path d="M0 0 C4.95 0 9.9 0 15 0 C15 0.99 15 1.98 15 3 C10.05 3 5.1 3 0 3 C0 2.01 0 1.02 0 0 Z " fill="#FFFFFF" transform="translate(255,345)"/>
<path d="M0 0 C4.95 0 9.9 0 15 0 C15 0.99 15 1.98 15 3 C10.05 3 5.1 3 0 3 C0 2.01 0 1.02 0 0 Z " fill="#FFFFFF" transform="translate(225,345)"/>
<path d="M0 0 C4.95 0 9.9 0 15 0 C15 0.99 15 1.98 15 3 C10.05 3 5.1 3 0 3 C0 2.01 0 1.02 0 0 Z " fill="#FFFFFF" transform="translate(105,345)"/>
<path d="M0 0 C4.95 0 9.9 0 15 0 C15 0.99 15 1.98 15 3 C10.05 3 5.1 3 0 3 C0 2.01 0 1.02 0 0 Z " fill="#EEEEEE" transform="translate(90,345)"/>
<path d="M0 0 C4.95 0 9.9 0 15 0 C15 0.99 15 1.98 15 3 C10.05 3 5.1 3 0 3 C0 2.01 0 1.02 0 0 Z " fill="#FFFFFF" transform="translate(75,345)"/>
<path d="M0 0 C4.95 0 9.9 0 15 0 C15 0.99 15 1.98 15 3 C10.05 3 5.1 3 0 3 C0 2.01 0 1.02 0 0 Z " fill="#EEEEEE" transform="translate(60,345)"/>
<path d="M0 0 C4.95 0 9.9 0 15 0 C15 0.99 15 1.98 15 3 C10.05 3 5.1 3 0 3 C0 2.01 0 1.02 0 0 Z " fill="#EEEEEE" transform="translate(30,345)"/>
<path d="M0 0 C4.95 0 9.9 0 15 0 C15 0.99 15 1.98 15 3 C10.05 3 5.1 3 0 3 C0 2.01 0 1.02 0 0 Z " fill="#EEEEEE" transform="translate(0,345)"/>
<path d="M0 0 C0.99 0 1.98 0 3 0 C3 4.95 3 9.9 3 15 C2.01 15 1.02 15 0 15 C0 10.05 0 5.1 0 0 Z " fill="#FFFFFF" transform="translate(345,315)"/>
<path d="M0 0 C0.99 0 1.98 0 3 0 C3 4.95 3 9.9 3 15 C2.01 15 1.02 15 0 15 C0 10.05 0 5.1 0 0 Z " fill="#EEEEEE" transform="translate(345,300)"/>
<path d="M0 0 C0.99 0 1.98 0 3 0 C3 4.95 3 9.9 3 15 C2.01 15 1.02 15 0 15 C0 10.05 0 5.1 0 0 Z " fill="#FFFFFF" transform="translate(345,285)"/>
<path d="M0 0 C0.99 0 1.98 0 3 0 C3 4.95 3 9.9 3 15 C2.01 15 1.02 15 0 15 C0 10.05 0 5.1 0 0 Z " fill="#EEEEEE" transform="translate(345,270)"/>
<path d="M0 0 C0.99 0 1.98 0 3 0 C3 4.95 3 9.9 3 15 C2.01 15 1.02 15 0 15 C0 10.05 0 5.1 0 0 Z " fill="#FFFFFF" transform="translate(345,255)"/>
<path d="M0 0 C0.99 0 1.98 0 3 0 C3 4.95 3 9.9 3 15 C2.01 15 1.02 15 0 15 C0 10.05 0 5.1 0 0 Z " fill="#FFFFFF" transform="translate(345,225)"/>
<path d="M0 0 C0.99 0 1.98 0 3 0 C3 4.95 3 9.9 3 15 C2.01 15 1.02 15 0 15 C0 10.05 0 5.1 0 0 Z " fill="#FFFFFF" transform="translate(345,105)"/>
<path d="M0 0 C0.99 0 1.98 0 3 0 C3 4.95 3 9.9 3 15 C2.01 15 1.02 15 0 15 C0 10.05 0 5.1 0 0 Z " fill="#EEEEEE" transform="translate(345,90)"/>
<path d="M0 0 C0.99 0 1.98 0 3 0 C3 4.95 3 9.9 3 15 C2.01 15 1.02 15 0 15 C0 10.05 0 5.1 0 0 Z " fill="#FFFFFF" transform="translate(345,75)"/>
<path d="M0 0 C0.99 0 1.98 0 3 0 C3 4.95 3 9.9 3 15 C2.01 15 1.02 15 0 15 C0 10.05 0 5.1 0 0 Z " fill="#EEEEEE" transform="translate(345,60)"/>
<path d="M0 0 C0.99 0 1.98 0 3 0 C3 4.95 3 9.9 3 15 C2.01 15 1.02 15 0 15 C0 10.05 0 5.1 0 0 Z " fill="#EEEEEE" transform="translate(345,30)"/>
<path d="M0 0 C0.99 0 1.98 0 3 0 C3 4.95 3 9.9 3 15 C2.01 15 1.02 15 0 15 C0 10.05 0 5.1 0 0 Z " fill="#EEEEEE" transform="translate(345,0)"/>
<path d="M0 0 C0.33 0 0.66 0 1 0 C1 3.3 1 6.6 1 10 C0.01 10 -0.98 10 -2 10 C-2.66 12.64 -3.32 15.28 -4 18 C-4.66 18 -5.32 18 -6 18 C-5.38357466 15.37271142 -4.75732213 12.74846418 -4.125 10.125 C-3.95097656 9.37863281 -3.77695312 8.63226563 -3.59765625 7.86328125 C-2.2265625 2.2265625 -2.2265625 2.2265625 0 0 Z " fill="#F2F2F2" transform="translate(344,215)"/>
<path d="M0 0 C0.33 0 0.66 0 1 0 C1.36297704 2.91581553 1.71568235 5.83225666 2.0625 8.75 C2.16626953 9.575 2.27003906 10.4 2.37695312 11.25 C2.47041016 12.04921875 2.56386719 12.8484375 2.66015625 13.671875 C2.74918213 14.4050293 2.83820801 15.13818359 2.92993164 15.89355469 C3.00408147 18.12270005 2.64094299 19.87333015 2 22 C1.34 22 0.68 22 0 22 C0 14.74 0 7.48 0 0 Z " fill="#E7E7E7" transform="translate(0,188)"/>
<path d="M0 0 C7.26 0 14.52 0 22 0 C22 0.66 22 1.32 22 2 C16.92546589 3.14457157 12.69144304 2.80002019 7.625 2.0625 C6.88894531 1.96259766 6.15289062 1.86269531 5.39453125 1.75976562 C3.59525923 1.51441035 1.79745869 1.25830463 0 1 C0 0.67 0 0.34 0 0 Z " fill="#E7E7E7" transform="translate(188,0)"/>
<path d="M0 0 C0 1.98 0 3.96 0 6 C-0.9075 6.28875 -1.815 6.5775 -2.75 6.875 C-5.32202908 7.76531776 -7.61346766 8.71494413 -10 10 C-3.31506849 0 -3.31506849 0 0 0 Z " fill="#F9F9F9" transform="translate(315,279)"/>
<path d="M0 0 C2.475 0.495 2.475 0.495 5 1 C4.25 5.75 4.25 5.75 2 8 C1.34 8 0.68 8 0 8 C0 5.36 0 2.72 0 0 Z " fill="#EAEAEA" transform="translate(15,90)"/>
<path d="M0 0 C-0.33 0.99 -0.66 1.98 -1 3 C-4.3 3 -7.6 3 -11 3 C-9 0 -9 0 -6.625 -0.75 C-4.07496 -0.99286095 -2.40864929 -0.8028831 0 0 Z " fill="#F7F7F7" transform="translate(226,342)"/>
<path d="M0 0 C2.64 0 5.28 0 8 0 C8 0.99 8 1.98 8 3 C3.375 5.125 3.375 5.125 0 4 C0 2.68 0 1.36 0 0 Z " fill="#EAEAEA" transform="translate(90,15)"/>
<path d="M0 0 C0.99 0.33 1.98 0.66 3 1 C2.67 2.65 2.34 4.3 2 6 C-0.31 6 -2.62 6 -5 6 C-3.86525052 2.59575156 -3.03188696 1.78346291 0 0 Z " fill="#F8F8F8" transform="translate(283,309)"/>
<path d="M0 0 C0.99 0.33 1.98 0.66 3 1 C3.29296875 6.95703125 3.29296875 6.95703125 3 9 C2.01 9.99 1.02 10.98 0 12 C0 8.04 0 4.08 0 0 Z " fill="#EDEDED" transform="translate(0,135)"/>
<path d="M0 0 C0.66 0.33 1.32 0.66 2 1 C1.34 1.66 0.68 2.32 0 3 C-0.0825 3.66 -0.165 4.32 -0.25 5 C-0.4975 5.66 -0.745 6.32 -1 7 C-4.0625 8.25 -4.0625 8.25 -7 9 C-5.44499019 5.18315774 -2.96404505 2.80804268 0 0 Z " fill="#FDFDFD" transform="translate(301,293)"/>
<path d="M0 0 C1.2065625 0.0309375 1.2065625 0.0309375 2.4375 0.0625 C2.4375 1.0525 2.4375 2.0425 2.4375 3.0625 C1.4475 3.3925 0.4575 3.7225 -0.5625 4.0625 C-1.5525 3.0725 -2.5425 2.0825 -3.5625 1.0625 C-2.5625 0.0625 -2.5625 0.0625 0 0 Z " fill="#EAEAEA" transform="translate(252.5625,14.9375)"/>
</svg>
